# xmcd
#
# Track frame offsets:
#	150
#	14495
#	26881
#	40343
#	52718
#	65202
#	77482
#	91430
#	103932
#	113989
#	128473
#	142494
#	159208
#
# Disc length: 2268 seconds
#
# Revision: 2
# Processed by: cddbd v1.5.2PL0 Copyright (c) Steve Scherf et al.
# Submitted via: EZCDAudioConverter 1.5.4.1
#
DISCID=b008da0d
DTITLE=Os Atuais - Gosto de Bombom
DYEAR=2005
DGENRE=Pop Sul
TTITLE0=Aqui o Sistema é Bruto
TTITLE1=Nunca Mais Eu Vou Partir
TTITLE2=Uma Chance Ao Amor
TTITLE3=Mulher Boa
TTITLE4=Italianinha
TTITLE5=A Moça do Vestido Branco
TTITLE6=Gosto de Bombom
TTITLE7=Oh My Baby
TTITLE8=Xote Pro Meu Bem
TTITLE9=K-7
TTITLE10=Quando Não Estás Comigo
TTITLE11=Amor Que Saudade
TTITLE12=Que Nem Chiclete
EXTD=
EXTT0=
EXTT1=
EXTT2=
EXTT3=
EXTT4=
EXTT5=
EXTT6=
EXTT7=
EXTT8=
EXTT9=
EXTT10=
EXTT11=
EXTT12=
PLAYORDER=
